<svg width="1030" height="380" viewBox="0 0 1030 380" fill="none" xmlns="http://www.w3.org/2000/svg">
<rect width="1030" height="380" rx="60" fill="#FFB3C7"/>
<path d="M915.803 235.776C912.609 235.788 909.45 236.43 906.505 237.664C903.559 238.899 900.887 240.702 898.639 242.97C896.392 245.239 894.614 247.928 893.407 250.885C892.2 253.841 891.588 257.007 891.606 260.2C891.588 263.394 892.2 266.559 893.407 269.516C894.614 272.472 896.392 275.162 898.639 277.43C900.887 279.699 903.559 281.502 906.505 282.736C909.45 283.971 912.609 284.612 915.803 284.624C929.15 284.624 940 273.683 940 260.2C940.018 257.007 939.406 253.841 938.199 250.885C936.992 247.928 935.214 245.239 932.966 242.97C930.719 240.702 928.046 238.899 925.101 237.664C922.156 236.43 918.996 235.788 915.803 235.776ZM836.176 216.914C836.176 198.437 820.536 183.479 801.242 183.479C781.948 183.479 766.309 198.46 766.309 216.914C766.309 235.368 781.971 250.326 801.265 250.326C820.559 250.326 836.176 235.368 836.176 216.914ZM836.312 151.927H874.854V281.878H836.312V273.57C825.075 281.327 811.741 285.475 798.087 285.464C760.566 285.464 730.15 254.775 730.15 216.914C730.15 179.052 760.566 148.364 798.087 148.364C812.274 148.364 825.416 152.744 836.312 160.258V151.927ZM527.791 168.861V151.95H488.317V281.878H527.881V221.204C527.881 200.73 549.854 189.743 565.107 189.743H565.561V151.95C549.899 151.95 535.531 158.714 527.791 168.861ZM429.46 216.914C429.46 198.437 413.82 183.479 394.526 183.479C375.232 183.479 359.593 198.46 359.593 216.914C359.593 235.368 375.255 250.326 394.549 250.326C413.843 250.326 429.46 235.368 429.46 216.914ZM429.596 151.927H468.161V281.878H429.596V273.57C418.7 281.06 405.558 285.464 391.371 285.464C353.85 285.464 323.434 254.775 323.434 216.914C323.434 179.052 353.85 148.364 391.371 148.364C405.558 148.364 418.7 152.744 429.596 160.258V151.927ZM661.645 148.454C646.255 148.454 631.683 153.266 621.922 166.568V151.95H583.539V281.878H622.399V213.6C622.399 193.852 635.519 184.159 651.34 184.159C668.273 184.159 678.033 194.374 678.033 213.327V281.878H716.531V199.254C716.531 169.019 692.697 148.454 661.645 148.454ZM267.277 281.878H307.635V94.0454H267.277V281.878ZM90 281.923H132.742V94H90.0227L90 281.923ZM239.494 94C239.494 134.676 223.786 172.538 195.776 200.661L254.838 281.923H202.064L137.894 193.625L154.464 181.095C167.954 170.95 178.883 157.79 186.379 142.667C193.876 127.545 197.731 110.878 197.637 94H239.448H239.494Z" fill="#0A0B09"/>
</svg>
